<mxfile host="app.diagrams.net" modified="2024-06-18T22:32:19.494Z" agent="Mozilla/5.0 (Windows NT 10.0; Win64; x64) AppleWebKit/537.36 (KHTML, like Gecko) Chrome/125.0.0.0 Safari/537.36" etag="S1rCuo2-oziGNdIy_RH_" version="24.5.5" type="github">
  <diagram id="C5RBs43oDa-KdzZeNtuy" name="Page-1">
    <mxGraphModel dx="1687" dy="889" grid="1" gridSize="10" guides="1" tooltips="1" connect="1" arrows="1" fold="1" page="1" pageScale="1" pageWidth="1169" pageHeight="827" math="0" shadow="0">
      <root>
        <mxCell id="WIyWlLk6GJQsqaUBKTNV-0" />
        <mxCell id="WIyWlLk6GJQsqaUBKTNV-1" parent="WIyWlLk6GJQsqaUBKTNV-0" />
        <mxCell id="qglRHFKe1jwUvfCVMeRa-25" style="edgeStyle=orthogonalEdgeStyle;rounded=0;orthogonalLoop=1;jettySize=auto;html=1;exitX=1;exitY=0.5;exitDx=0;exitDy=0;entryX=0;entryY=0.5;entryDx=0;entryDy=0;" edge="1" parent="WIyWlLk6GJQsqaUBKTNV-1" source="qglRHFKe1jwUvfCVMeRa-26" target="qglRHFKe1jwUvfCVMeRa-30">
          <mxGeometry relative="1" as="geometry" />
        </mxCell>
        <mxCell id="qglRHFKe1jwUvfCVMeRa-26" value="&lt;font style=&quot;font-size: 18px;&quot;&gt;Consumers&lt;/font&gt;" style="rounded=1;whiteSpace=wrap;html=1;labelPosition=center;verticalLabelPosition=top;align=center;verticalAlign=bottom;textShadow=1;fillColor=#fff2cc;strokeColor=#d6b656;" vertex="1" parent="WIyWlLk6GJQsqaUBKTNV-1">
          <mxGeometry x="45" y="258.5" width="200" height="310" as="geometry" />
        </mxCell>
        <mxCell id="qglRHFKe1jwUvfCVMeRa-27" value="Web" style="rounded=1;whiteSpace=wrap;html=1;fillColor=#dae8fc;strokeColor=#6c8ebf;" vertex="1" parent="WIyWlLk6GJQsqaUBKTNV-1">
          <mxGeometry x="85" y="298.5" width="120" height="60" as="geometry" />
        </mxCell>
        <mxCell id="qglRHFKe1jwUvfCVMeRa-28" value="Mobile" style="rounded=1;whiteSpace=wrap;html=1;fillColor=#dae8fc;strokeColor=#6c8ebf;" vertex="1" parent="WIyWlLk6GJQsqaUBKTNV-1">
          <mxGeometry x="85" y="383.5" width="120" height="60" as="geometry" />
        </mxCell>
        <mxCell id="qglRHFKe1jwUvfCVMeRa-29" style="edgeStyle=orthogonalEdgeStyle;rounded=0;orthogonalLoop=1;jettySize=auto;html=1;entryX=1;entryY=0.75;entryDx=0;entryDy=0;exitX=0.006;exitY=0.717;exitDx=0;exitDy=0;exitPerimeter=0;" edge="1" parent="WIyWlLk6GJQsqaUBKTNV-1" source="qglRHFKe1jwUvfCVMeRa-30" target="qglRHFKe1jwUvfCVMeRa-26">
          <mxGeometry relative="1" as="geometry">
            <mxPoint x="409" y="491.5" as="sourcePoint" />
          </mxGeometry>
        </mxCell>
        <mxCell id="qglRHFKe1jwUvfCVMeRa-30" value="&lt;font style=&quot;font-size: 17px;&quot;&gt;Back-end&lt;/font&gt;" style="rounded=1;whiteSpace=wrap;html=1;labelPosition=center;verticalLabelPosition=top;align=center;verticalAlign=bottom;fillColor=#d5e8d4;strokeColor=#82b366;" vertex="1" parent="WIyWlLk6GJQsqaUBKTNV-1">
          <mxGeometry x="410" y="236" width="360" height="355" as="geometry" />
        </mxCell>
        <mxCell id="qglRHFKe1jwUvfCVMeRa-31" style="edgeStyle=orthogonalEdgeStyle;rounded=0;orthogonalLoop=1;jettySize=auto;html=1;exitX=0.005;exitY=0.697;exitDx=0;exitDy=0;exitPerimeter=0;" edge="1" parent="WIyWlLk6GJQsqaUBKTNV-1" source="qglRHFKe1jwUvfCVMeRa-32">
          <mxGeometry relative="1" as="geometry">
            <mxPoint x="771" y="480.5" as="targetPoint" />
          </mxGeometry>
        </mxCell>
        <mxCell id="qglRHFKe1jwUvfCVMeRa-32" value="&lt;font style=&quot;font-size: 18px;&quot;&gt;Infrastructure&lt;/font&gt;" style="rounded=1;whiteSpace=wrap;html=1;labelPosition=center;verticalLabelPosition=top;align=center;verticalAlign=bottom;fillColor=#e1d5e7;strokeColor=#9673a6;" vertex="1" parent="WIyWlLk6GJQsqaUBKTNV-1">
          <mxGeometry x="925" y="278.5" width="200" height="290" as="geometry" />
        </mxCell>
        <mxCell id="qglRHFKe1jwUvfCVMeRa-33" value="Postgres" style="rounded=1;whiteSpace=wrap;html=1;" vertex="1" parent="WIyWlLk6GJQsqaUBKTNV-1">
          <mxGeometry x="965" y="468.5" width="120" height="60" as="geometry" />
        </mxCell>
        <mxCell id="qglRHFKe1jwUvfCVMeRa-34" value="Docker" style="rounded=1;whiteSpace=wrap;html=1;labelPosition=center;verticalLabelPosition=top;align=center;verticalAlign=bottom;" vertex="1" parent="WIyWlLk6GJQsqaUBKTNV-1">
          <mxGeometry x="935" y="308.5" width="180" height="130" as="geometry" />
        </mxCell>
        <mxCell id="qglRHFKe1jwUvfCVMeRa-35" value="&lt;span style=&quot;color: rgb(51, 51, 51);&quot;&gt;SpringBoot &lt;/span&gt;Application - Card Points" style="rounded=1;whiteSpace=wrap;html=1;labelPosition=center;verticalLabelPosition=top;align=center;verticalAlign=bottom;" vertex="1" parent="WIyWlLk6GJQsqaUBKTNV-1">
          <mxGeometry x="430" y="276" width="320" height="295" as="geometry" />
        </mxCell>
        <mxCell id="qglRHFKe1jwUvfCVMeRa-36" value="Java 17" style="rounded=1;whiteSpace=wrap;html=1;fillColor=#f5f5f5;fontColor=#333333;strokeColor=#666666;verticalAlign=middle;" vertex="1" parent="WIyWlLk6GJQsqaUBKTNV-1">
          <mxGeometry x="615" y="311" width="120" height="60" as="geometry" />
        </mxCell>
        <mxCell id="qglRHFKe1jwUvfCVMeRa-37" value="Flyway" style="rounded=1;whiteSpace=wrap;html=1;fillColor=#f5f5f5;fontColor=#333333;strokeColor=#666666;" vertex="1" parent="WIyWlLk6GJQsqaUBKTNV-1">
          <mxGeometry x="450" y="443.5" width="120" height="60" as="geometry" />
        </mxCell>
        <mxCell id="qglRHFKe1jwUvfCVMeRa-38" value="Swagger" style="rounded=1;whiteSpace=wrap;html=1;fillColor=#f5f5f5;fontColor=#333333;strokeColor=#666666;" vertex="1" parent="WIyWlLk6GJQsqaUBKTNV-1">
          <mxGeometry x="615" y="443.5" width="120" height="60" as="geometry" />
        </mxCell>
        <mxCell id="qglRHFKe1jwUvfCVMeRa-39" value="Sl4j" style="rounded=1;whiteSpace=wrap;html=1;fillColor=#f5f5f5;fontColor=#333333;strokeColor=#666666;" vertex="1" parent="WIyWlLk6GJQsqaUBKTNV-1">
          <mxGeometry x="450" y="311" width="120" height="60" as="geometry" />
        </mxCell>
        <mxCell id="qglRHFKe1jwUvfCVMeRa-40" value="&lt;div style=&quot;text-align: left;&quot;&gt;&lt;span style=&quot;background-color: initial;&quot;&gt;Third party&lt;/span&gt;&lt;/div&gt;" style="rounded=1;whiteSpace=wrap;html=1;fillColor=#dae8fc;strokeColor=#6c8ebf;" vertex="1" parent="WIyWlLk6GJQsqaUBKTNV-1">
          <mxGeometry x="85" y="468.5" width="120" height="60" as="geometry" />
        </mxCell>
        <mxCell id="qglRHFKe1jwUvfCVMeRa-41" style="edgeStyle=orthogonalEdgeStyle;rounded=0;orthogonalLoop=1;jettySize=auto;html=1;exitX=1;exitY=0.5;exitDx=0;exitDy=0;entryX=-0.02;entryY=0.466;entryDx=0;entryDy=0;entryPerimeter=0;" edge="1" parent="WIyWlLk6GJQsqaUBKTNV-1" source="qglRHFKe1jwUvfCVMeRa-30" target="qglRHFKe1jwUvfCVMeRa-32">
          <mxGeometry relative="1" as="geometry" />
        </mxCell>
        <mxCell id="qglRHFKe1jwUvfCVMeRa-42" value="" style="shape=image;verticalLabelPosition=bottom;labelBackgroundColor=default;verticalAlign=top;aspect=fixed;imageAspect=0;image=data:image/png,iVBORw0KGgoAAAANSUhEUgAAADAAAAAwCAYAAABXAvmHAAAACXBIWXMAAAsTAAALEwEAmpwYAAAFGElEQVR4nO1Z208cVRhfbw/2RePlSX3wbzAa++SLIXvOQltjqKaN8UmTqqnGRGvQBJNausywbaX0QlrFC2krCL3QVtQ2G85ZlgILLNdti0BZoFQoC+WysNfPfLM7lF1YZoaZ2QfDLzlhObv7ze87l9/3O2ctlk1s4v8Lhzv/yaw8qKoq/zHBlbu1mJECgZEagdNekZOAwGhY5DSSeE26RUZqBU6/cnDr6wCWRxRjMlppKvGShpyXBE7sAiOjIqegsY0InB6wO60vrhW72EXeERiNiw15LxtO/ACzPi9wUi4yEtoA8dTGMAYpLXHmPifHx9kRGPHi+wIjXxpKXuBkl8DolG7iq9uEyOlOfIbIrXlyv8CJxxDi5Z5XnhA4PWUCcUhtpBRJp/TpXUaFntwtAqNXzSdPl9vRpp1Qd7NYel3Cyaf6Rj7L5EVOwTt+BQYDrcllRK9tOIHsLBua0i75igARiYXgcOMOQDk+7Nz+tGbyJS7r7myTP9v5BYSjiyCjuucbqR9lVRP5ouYdzwqcTGaT/IW+/RCOLcFKtI1dlN8/rikBSeezRPyQaxs0+c9BHOKQjqngSGIfMOJVTR6royFFSkX7rbsAJueHIDPikiKJjMTsf7/5lNrRt5tJ2uHKg/N9+2F42gtqgElKs+Cy5iiSL4TCR9GnGEH0SONbcKL5Paho2yOtbzZUAb6JBliMzIEWNAz9mIjJ6F7l0Xflbt0I0Yu+Ikm7Rx/0wsziPUkCjULXeH1yH9CjigmgJVZN3P02NPnPah5RJQTDD1L+vzPdkUiAk3rlGWCkRg35Xzs+k0baaETjEbg760vpCwTHZCXyKSYgMtqjRP5c1z5YWWyMRM+/12ApMp/StxCekZ89omIG1rfK5S3vw2Jk1hTywcgsOAdPr+rHhJJ7YErFDKyv//9M3QCzcPmmCPfm+lf1oyAkVIiEdCXwc/snppFvv1sHdT57xplJbGK6pGsJtY7WmEJ+MOCB0qb8jKIwMT8oq9Ckrk08PnfbcPL+mS7JMnvHr2b8zECgRZ6BLjVLqDZTAqgGRuLWJJfIX+j7bt3P4cwnE6jWVciMKljxeAzcw2dA5DapnihJcm3vt0kOtn2KCeClU+YZmNZNHtc5HlowXkXbHsWYKKGHGrcnODRaX1Vl5gRO/UZLKB5UmkeqJfuBsX7p2KtqScrLR2RkGLkpJpDcBwfXSuD6QPmGfA36pWM3di3HwduGcDSo+N1QdAGON++Wi1iRRe+BBqVOzTKaDwUkVanq/hocrm0p3+8c/0N18n/2ly7rv8Nte8GiBQKjJ9aaharuglVWGUcKpc45eAp+av9Y2pzpR8b620ekxNSiZeT35e+rstHpcLhznsl0qEeS6P3/6i+DivaPoCSNsNx+8HwIjcOVMB+aUk08GgvD9YGTDweBkfsr7001QWS2d9VY6/TkkDRWTy2IxsKSEz3t+SAlnsBt+Rsi/zAJcjKdJN4goHbjXxypSu/nksJML46tSzIWj0q1BL3N/QU/3Jluh9bRWrjkOwjfJ9UppTFaZtEL6YcGTs+vDCz79VA0qGl2tDSBk8uFzjcetxgBvNwVGb0iB3f7z0jkUR5NSqAOn2kxEslL3jWVydDGaJlhI5/xpx9zrhwndG9Yjfemx7DA6F/rdAl1HmXbkm1gdUTbkck7KRD3oz3QXGHNAJose4PtNfwJFT07Hjykkx3aEUZCyVNeJ76HlhhdpWpjtolNbMKyHv4DEwlIYov/X1cAAAAASUVORK5CYII=;" vertex="1" parent="WIyWlLk6GJQsqaUBKTNV-1">
          <mxGeometry x="685" y="252" width="24" height="24" as="geometry" />
        </mxCell>
        <mxCell id="qglRHFKe1jwUvfCVMeRa-43" value="" style="shape=image;verticalLabelPosition=bottom;labelBackgroundColor=default;verticalAlign=top;aspect=fixed;imageAspect=0;image=data:image/png,iVBORw0KGgoAAAANSUhEUgAAADAAAAAwCAYAAABXAvmHAAAACXBIWXMAAAsTAAALEwEAmpwYAAADnElEQVR4nO2Va0hTYRjHX9+TZolo5IcuUHTRL5VKMy1KiiSXYc4urhKLrKbdrUwrCO0ioRlLt1KziwUZ5xwTRfCLZmWhFIHVcqZdlpYltJW2c+wyh0+cldDaCeemzsX5wQO7vDvP//fehpCAgICAgICAOTjzKfxdyJnAgoCDEVZgqHBZdxH+Lr7Z5htndZMb3ZMwxVYjmp3gfAI0uGGKeUJQLGCKecS9dyoBTLKpXPi+whSz13kEAFwIkmn9U4Ag2ZfOI0B/nWIW/nehsk7vYQ9ri5QryQbwCWCKkWKSvUuQzPe+VSEoVjHiBFCx3ocgmV4+CUsptnTkCSDuEDMPrREgaGbpiBQg6O6ofmefZEv6DT+sAjSMQXT35FGkfiFBMvn9hK9B5VpPy7RF4G7V0g1nkYyRoJhvBMnquEOMaXYrooHgn+6RKEAx15DVpAN2Lf5k9DyvAr/EU+CXmAFeigZwvdFpepj71Q8wTl4PfgkZMD1JCR6XNGbN3K5rwUvZAL47Mk3lmfeMC2A2hvvNjD1nYerBi+B+rcMisHtRO0xLUoLv9lOm3mOuvJf0xROJV00MDo9KCxZHVcyPkMwRiRJcLRxCxBLgq+CINbyfi1bGQmCMDERRcbzfB0VKwX/dDvBfvxvmSizHBK6VwaxNKTA7Ltn0OmR5tHlfsaQnRCzRhIRLOviebyGA5c06vsPniCKUrynrt0+fgOJVnaODY65Oqw0ou8Nj4AJ5rbtsaRhZ8gba9QZ4pzfAClpjt8Coc5p0ZBM0EDhb3TPQhlzwbfsPQcKBw/D2i8E+gZyWFmQPRJ6GtkWAC5+YfMQ+AflzFinbx9slgC5pPfEZteHXQ5+AW8YDGH2iHjzSbsG4lJswM/kyzN95EkKlW2DOhn2mxty24SS48BG2bqHsRiMqaAtCg8G83JrzCyJjeK9Gs2syNmlwDu0ZdQ8qaA1Dg0loVqmau5cXRcfCYmk8LN24EyL3poM0owBkRVVwqLYdYqp09oeXN+lRYdssNBSEVX6uPKr6DscbDbyV9uwH+CiabAuepQIXxes76ML7sWgoCS7T7ZPV6Y3/kpDd/wJu2aoBhFcBzn3Rhgo1YjRcpAPgRRUfSzff6+o5xiMRX9sJXjn9rMTpRiNWvKpHhW2hyJEElGmXLKnQ3V5d/VnLCSU97O49/PgbpDZ8hWXlHeCd29Rr+i+RP+/CuS+aiXMaGuW/XeXQ0AICAgIC/zU/AYP6b4G7PH7cAAAAAElFTkSuQmCC;" vertex="1" parent="WIyWlLk6GJQsqaUBKTNV-1">
          <mxGeometry x="1045" y="284.5" width="24" height="24" as="geometry" />
        </mxCell>
        <mxCell id="qglRHFKe1jwUvfCVMeRa-44" value="" style="shape=image;verticalLabelPosition=bottom;labelBackgroundColor=default;verticalAlign=top;aspect=fixed;imageAspect=0;image=data:image/png,iVBORw0KGgoAAAANSUhEUgAAADAAAAAwCAYAAABXAvmHAAAACXBIWXMAAAsTAAALEwEAmpwYAAAHIElEQVR4nO1ZaWwVVRSuT5RFUFQgAiomCiIgxogKxi0oLjEGFLfEGONCFGOIawqUIjspm0ILGEpNsKCIsqXs0Pa1pTsttKU7pS20QDe60b19n/nu3Pt49M3Mm5aYPhNOcn9M5sy95zv37OPjc4Nu0H9HACYBWAcgDUAtAAeASgDpAEIBzAAwxOJeQwFMA7AcQBiADLlnC4ALAFIBBAOYDqDv9Qo+DMAeWKN2AHYAMwGMAPAZgIMA8gA0ykXQXaFKAIsA3NYd4UcBKOIutc1tCLAXYVJQMu78KQq950Zg8MJoPB2YjJm7crA/uxLNbR1dlA2ouNKKd7dmiD37z7NjxLJYPL8xBUvDC5FaWufKWgzgxa4I30deLY4X1WDo4hjYfMNN110LopBVdsV54pG8Knz452mMXhmPAf52IeSjaxKEwNtSLwqlkFrbHZh/pAA3z3bfk2CSztO6NFYAn1oFsIJfnLpQLw73JDzX5qRSp1anbkmzBHhNdLEAQNqVUY6+fpFufLfMicDyCGEIJF7z+56E70+rcTiACeuSLAlPTZOoVavfqPXM+mRcrGtxgqDAenzf78tXIJoBjDYDQOdD5JnLlgS4Y74dl+o1AT7YdrpLwqv1UECcE8SyiEJDvtCUiwpEkBmALeT4cleOpcN9D5wROx7Lr+qW8Go9FZiElvYOdDgcwvb1eCYGJSsA8WYATpKDzFYOLqhidASmBJ+8LgA233D4HSqA8r1es91NadDCaAWgwgyAcHtGDU8Hjl+TIHYrv9Kqe2BXV1+/SJTW0sSBt35Pd3vfzy9SAag0AyB2YKz3dOAP0rFom9crvE2uH/dre/6dXub27r6lxxWAQjMAIkBb0WhYVoXYbWdGOfZlVSC/shHnapqEP0wPTdeN7Xqr1+wIfLIjS+QO3iappqnN7XsmTkmJZgCqycFM6+ngjEtXE5ceLQk3jihq9ZkbiaN5VW7f0qE7837+T7Z6HWIGIJEcz2444fFwlU1TSurw0fZMPLwyXpQDjNmMJswlj6yKt2SGF+pahIBPrksSz2X1LW68G+JKFIBvzQBsJQev1BOAJln/MBe43grNoL6FtR2w8OhZ0z3ii7VSobG1A3XN7dgYrwmZW9Hgxptd3qAATDAD4E8Opm9PAKgl0j0utdIXO7NR2dCKEyVaMbY3s8J0j7MyDJfUNqO4usl5I6zBXPkeDIhzhlAANjMAb5KLTukJQF6FppFRK+Lc3rFyNdKk60o4p93Ay8Gp4pnhUw/4rL25CsAfhsJLAMNFoG1o9RhFzlRq2mMp0Pnd/cu0kHe5sc10j6DY84Jv0THN1F7dLPIoDudem9ldqtKppgAkiEvkHKmjWT0TGrIoWje6kNo6HKZ7vLSJDRiEKVFhT6zVnPhkab2TZ+zqBNcG51YrAHaS++O/Mi05MYXt/G7g/CjxjpHKkymeluGYvcK9MlkxEKj3LLslrfcovAQwy0qGZZg00jDDp9KsJwCzpH0zgqmbU3mAimBSk334GKsAxqvYbOQHzJ6qetRrelSPcCCn0iOAfn6RIoOTvt6Te43vzDmoVbuMK5aElwBsvEV+9djPiR5juF4HtiOtTMs4YXkeAdh8wzFDZlllluH5l0V+UX4GYLJlABJEsGt00FsUjsRQ6NpJ3e5vF4mMJvbA8lhLAG6dE3FNacIbZHMjyd4l4SWAV/gls5/RoTQdJiBSYOx5ZwGotBl9ttqS8Da5Hv8l0TndoF8wO0vbn9gdAL1k1hMbGx3Kmkk15ozd7KZiCkU9KOqjrgCw+Ya7al1RPS2KJbQs9bMsmxOADdwhJKnU9FD6gB7ZC6rxTqh7Y2K0hi+JEc4r1K7pxIhYvva2AmAM9+K1Mj7rHcootf2UyHuGxMhiBcDScE377AuYHJmV39uagTd+OyUqXWb3hlatSAQwyOot7Cb32uPndA/lxI7EfBBbVCP6Wrajdy+Ico5COLWwAiBeRrXJm7S6yHWxR3cZnEVZEl4CGM2pGAV8rlOPwLEi6buwPCGwnlAqLBrNe1xXmQyZbB3ZUI1bnSACAgtL5htJnBgOtwxAgvBVBd60LWliOsAEozb9NaFEgFN9AW+AWmSrqchKj91hbvh04FXdmljLxBZisLGlqa4VAI6r8rfJ6JMpTZjDtsFdFrwTiJvkfwDWCDRGVl1TAIzjpIzjHDlCJ7GbSZHNUaNRwWcEwKcnqXO3JMHoDm69EkBnkrclCrb/NYABFsb0Di8FUGTUdrquoYtjlAPX+3gTyf9meC3EfPj7eghjgKBkH28iAAGUihnbDECgbO4Z6328iQC8QKnYcRnlgpEr4lSNQy8Y6+NtBECMGuYdLnATftiSGGdTbzrz7Eni3Ir/kVkq+B8uED/4KPhXu3Ocv6eg/VgZ6OOtBOAbaSJ6dMhyeewF/sB42SSbkgMA3maZ0tOy9Tj9C1LZ57OxUqMrAAAAAElFTkSuQmCC;" vertex="1" parent="WIyWlLk6GJQsqaUBKTNV-1">
          <mxGeometry x="1055" y="486.5" width="24" height="24" as="geometry" />
        </mxCell>
        <mxCell id="qglRHFKe1jwUvfCVMeRa-45" value="Redis" style="rounded=1;whiteSpace=wrap;html=1;" vertex="1" parent="WIyWlLk6GJQsqaUBKTNV-1">
          <mxGeometry x="965" y="338.5" width="120" height="60" as="geometry" />
        </mxCell>
        <mxCell id="qglRHFKe1jwUvfCVMeRa-46" value="" style="shape=image;verticalLabelPosition=bottom;labelBackgroundColor=default;verticalAlign=top;aspect=fixed;imageAspect=0;image=data:image/png,iVBORw0KGgoAAAANSUhEUgAAADAAAAAwCAYAAABXAvmHAAAACXBIWXMAAAsTAAALEwEAmpwYAAAG1UlEQVR4nO1Za2wUVRReNRqNCUT9Afbe3e0+S9/b3ZndWYsUATU++GFCQkIiCYkgUQPEoGA0gehfo4EYFZBISSSiYkRgtqUthUJLhYpQayv03c5uW+gDS6GFPo45t911uzt3ZoVKielJbvpj5977fed+3zl3pgbDTMzETMxEbDTn5T0c8gtrgn6xMigJg0FJ6FX84gFFEpYY7uVo9HhmB/3C+qAkBoN+EdSHcAHJIUnDvRIdXq9FkYRtil8cCOb6ILQglwP+n6H4hc6gX9yqiOIT0wY8KHnciiTuVSRhOBrc4PFSGPh2H3StWA6hJQuh9/3NcC3/a3UykjiEa4R8vtS7AhoMhvtQy0FJOMTLbu+WDyASIyPsT/+uHTonIo4G/WKRIglL/xPgNWlpD7VL3pWKX/hDDUBoUR70fbgFhs78AjA6CrExrLTDX9s/hY7nFunKKyiJ53CvKo/nwTsG3u31zmLG9AuK3sYol67ly+DK2tXQs/kdGG5qZOAHK05B/+5dcPWTj6Fn00YIPe2PzT4okqBGJIQ+aZOkx/818A6fLzlizIkFO5e+CFfeeJ1punv9W9C17BVNQkhkbHAQOp5frPp7q88Dv6WnQkmyGb6hFApsVqgXXPHyksSBdp9ntyKKTl3goadEIegX9iuSMMIWyPVB30db4Vb9pThZRKTx2XYI5alXnp63N8Rl+2JOFlQ4HRCgNDL2Ugp7KIV8SuFAshmqMlJViAhw0Z1dzgXf7M0piJ3Uv+MLSCSu/3xQV9v1HhfLdjTwQAyBPVFEjqc449ZoFnOAS6DF54mXwWurWJa1YqSzE7rXvalvTpSNd0I25slE8ieA7zMa4ZjTAS2iJ05uv6bNg6MmE59AqSUZarMz4wyFput5dyMMfL8fhipPw626Ohg6ewau//Qj9Ly3CUIL5+sCxzWin8M9/nRlQrnDBkUmExy2WqDalRE3r0nIgTPznFBgNEbIcgmEH8DsYJbafCqVQWd0PLsILq96lRm9/6udcKOkmBHGU0yohPrHR4PggsqUycDZIOQml4BM6XD0w0eNRjibmgItoltzM6xIeCKjvb3qGhsbY8/ogVb8IjuVEzarqk8mCJzknwAhDWqTMAvlDjvUu7O5m3e+/ALL+GhfPImBAz9oA5dEqMnKgGOWZC5wmZCaAkpXfGcwPMAlcHjuXHOA0p0BQoZ4C5VZLVCbnaHeeFDrC3KZfG7+Xj1u8GAQQovzuIY+l57KPMDb7wTu58qEdp/Q1+jJ/rxW6/LXJkmkTRK2NQvuG+eY42P0FzWwHF7ISIN2DhFWwdauhsurVsYbU3QzaRbG6js6UTYr1Lky4+a2iO4hLoEWr7s/+uE2SWAgizUyVBj2idd9+8akk4Fjo1OXmgDVmen8KlTHmdgeJhJTuyf7hEJligMaPa64TWv1jEkpnEKPxcyN3h+Bh5sgl0ABpXDSbmOVgJfFmqx0KE3mmw0HmrHcboNTdhtrPFzSdBx4Awc4zyNcAtEPHbdaWGXglTvUJxpMi4jWwNNqEnJU12/W8IhM6TUuAZnSgdgJqH/MQpvKNQPHJY+LZTER0Cgz7Ko8vzToeYSQPpmQDXwChOzjmtVkZJs3iepZQxlgVtU2x7mYUZQEr3mVaXik0GS8VWa15BdZrbO54CM+MJufKbaYz2vpFpvaJU5TQ1lgCa5w2KHS6WDmUzu9RJpXkcnErjThUt0kuntqszM3ccG3+MTVik/oxYcbBX5GIz6xjPuE19S0XmKKzHxzl5jHe4zauq0+zxiXAP4YZyivftNJ5PKXSPMqSTazE+MlBE+9zG7jVyHUuJpOw5lDaWgBwM5dlZrC/IDH3up1M31XOO1Merx5pewk1YGjR2L7CJdAuFJgJWjklLhEunOio4xzXdDxyKgmgeih1dQS6c63A7xVzyOEKFoErqgeMb4taWgzke4cuS7wqpeo7RF8V5Ep3XskKYn/ZUImZJlMSJNWWeM1NabVbPXufNpp50qyQb95DcmUflloMlkMicQWg+F+OSlpqUxIFbcXGI1sU95VAJtdnSsL8HLII4vSPGm3cU8LbwUypdtkQmhCwFUllZS0RKa0XK+p8a6/PGPqyK0fgQdMpicNUxWy0ThfpvSQTOkYb2Oty1/Y8FrNK4D+I2TrYZPpsSkDHkeEkCw0UuzLf/TAqoRmRNOfz0iD0w67Zu+QKe1C4LLdPstwtwINNaHPwTvoAy0BQtZ/R+kjhumKYotlDsseIVcTBk5Ig0zImin5dD5VgceP2QwQ0qEBvPoIISs1P4tMdxTOmfNogJB1AUorA5Relyntlgk5GCDkJfzPznTjm4mZ+D/G3wvrSQ8eyt0AAAAAAElFTkSuQmCC;" vertex="1" parent="WIyWlLk6GJQsqaUBKTNV-1">
          <mxGeometry x="1055" y="356.5" width="24" height="24" as="geometry" />
        </mxCell>
        <mxCell id="qglRHFKe1jwUvfCVMeRa-47" value="" style="shape=image;verticalLabelPosition=bottom;labelBackgroundColor=default;verticalAlign=top;aspect=fixed;imageAspect=0;image=data:image/png,iVBORw0KGgoAAAANSUhEUgAAADAAAAAwCAYAAABXAvmHAAAACXBIWXMAAAsTAAALEwEAmpwYAAAFlElEQVR4nO1Xa2xURRQeQERUrG1ntoD4woIS8bmdu+UR6967xQooYCxBpSq7Zy4v8REV/0iqxkR8JMZfYkKMiUZC/eEzJEi6Z5YCf6j4iATUKA9jCA+x3XtLA0HWnNlH19Jaomy7Nf2SyXbPvZ39zsx3vjPD2BCGMIR+QadTNZENZniOfGhQJ+E51tpkRC5ngxFts6rLfFse9hz5AhtsSDWy4Z5jbfIdK9VhW0vZYEKqvn6E58j1RN6z5ekTkeBVbLAgVVNzke9YTUTeJODId9mg0rxjJfLI70/WBDk9S9VVjvLDodm+bb3l29ZGzw7dzIoJ7Y6c7Dvypxx52+rww9YtR6dPH+M78nnfsY6mn8kNbTNnlrJiQkc4FPRt+Xse+ZO+I+u82qqpvmPtzdaCZ1srWbGhsyZ0jedYh7rIy9MdtlxA8eyq0250ONY8VozwHLk5S55G0qlaQXGSSi6piFzIihFe7bSA51hn8op2HcVTweBIz5GdGc3vZsWK9khoUn7RZouzw66+Im9X9rLi7rby10wCO3PxuspRxoWysrozOIMVK3xHrjFEbastVV09Oi/+ZtcuyGZW1J3XtvYYohGpuh/kchILyxtZsSI5K3iD78jjpHeSVTbuReSDuV0IW8+wYsYJR05LNzM5NxujZHzbOpJJIsqKHclIaIrvyC/JRrMx37aOkZSOR4IlA8uOMcYhHhRKr+aA7wnATVzh2kBM11au2jQq+05HjTXBd6puM3+HQ/d6jtxHR43uc5UrLQXoJqHwBwEY527ijoIRL3kELxeACaF0Kj3wTF8/aIo7bDUcq7MuM4Sj28YLF2cKhQ1lgBMqFm++xMQUrqc5OeCJUrelMPeGAGB1F/lcEkmu8FsOegsN2hFaUa70J+a70q0C9B6h8CBXujP7P8LV9d1SHSaU3pt5/lhBEjBJKIwIwE856KNnJ9PbwCQH/E4o3MhBN5ZHm6/vaW7RtburWX+Atp5HcZGIYoMAvJ9WVcT0fZRkWSxhlcX0FLECLz2XuUqWt5RypX0jIzc+p+DkJzy1YzTJJLPCDSSBf3p//Mot5QEX5/embw76dTMX6D2sES8oGPHcD7rxOX+TCeABAfoLofAdrvTbNITCDzK1sU8A/pkuUu1xVz/OGlO5RscB5wqlT3PAw4HY1n66YjamhnNARQVMbnSOtXBQAK4TbmIWc1tNjwhAfF5aOriRXIkNBDhsmRyI4eIA4DIB+jkO+hUaAvBZDolYwI0741w0l/p8iBhWCsBVY6PNV7OBAlc6SivIQX8sVuDYriepYUQ64OqbBOiHhdIfUuO7LLajbMDIsvqmERVRnMrdxO0Vy7YHKCQAj+fLxMjBxHqWFQd9iByqX3mXLG8pNZ0ySzb9+TkdH7jCRaZI+9A/FagAvUFA/K6eHGvskq2CK/1aX272r8CV/rrLbbSm9n/WO0v1pADoBdk6IG0b/cd0rXCbr+uLGAe9kOavcOOh856AcY8uCewjCZ2vuSuWbQ8I0C8JwFO0SwWpEVoVrvBIN9//SgC+wQEfELH4DNOgMtbYI+q/v5C7iXHk86Zrp0knhMKTGYvdRfWVn9h5TaI8um1MxiK/6VXr1KyoPtLjAFf4Mw0B2N7L++3k/+UxfU9+YyPbpS7PCgVqOKR3AfgiV/p9rvQ2qhNDGPShPGf6gyv8hVZXKGw2p1TAV8l6TcetbxqRP68AvJUr/ZEA3Ub3hIIlQKtV+mjiSpLFf52qAhLXcsAnyRzS1ou7+uc44baO5ErfzZV+gm5kdEzmLgKdkcpdrDKutKRlIg3quKaOYno2HfwE4MsC8DOu9P6MlE4ZW3Zxfr6U+hGpYYasi/O5i2vMFRH0TgH4o1D4G0kp7TJGXrs56BajfVc/TbezcW7rxQNAeghD+F/gL76ssK8TFCCXAAAAAElFTkSuQmCC;" vertex="1" parent="WIyWlLk6GJQsqaUBKTNV-1">
          <mxGeometry x="697" y="329" width="24" height="24" as="geometry" />
        </mxCell>
        <mxCell id="qglRHFKe1jwUvfCVMeRa-48" value="" style="shape=image;verticalLabelPosition=bottom;labelBackgroundColor=default;verticalAlign=top;aspect=fixed;imageAspect=0;image=data:image/png,iVBORw0KGgoAAAANSUhEUgAAACAAAAAgCAYAAABzenr0AAAAAXNSR0IArs4c6QAAAXpJREFUWAm9VAluBDEIy9P6sz6tT2vlKl55WBxIplOkKAdgG5bZMXr2Mcb4mut7jFGtzx6sjyJhRdT1bwlCpV3gkzhf9vScgLocFINuqv8xASQDYTQVEX1vd1XrziDD75qRvQGGLmT+y1sk3SW7gM3LVgd2KotkIIJgFKGTvyUggrq7ksWu4Q4/DWIYw7etvSIjOHYOIwm0evhLIxlbqeDuvJoTrb4lwJHoe6zSVRWr/zMBjpDv7KKK5pkxdmfgarfJc/pPc39xV8nq0xlBxbT4m2sOzqXFhOoOIWpVvMam5wpA/ZE8GzqNx7m0mKB3Tr+2nICrwVMMxttdg0log6ejSw7s0lSA/p+7xE7bFdPhvN41eCVgl5i4LyJ3YGC2q6Dqc8vy8VaaS4wT/68C4jCetr/dgUgY2wa/61T1HrG273fIWx1wiu60Xbvi8C/vIMO6W60S83whyi4MfGrPOC9vTxEDFx1t2+l3nhWwRZwpxDx0BYEMCzml/QC5Dxx5Q3Ge5wAAAABJRU5ErkJggg==;" vertex="1" parent="WIyWlLk6GJQsqaUBKTNV-1">
          <mxGeometry x="535" y="461.5" width="24" height="24" as="geometry" />
        </mxCell>
        <mxCell id="qglRHFKe1jwUvfCVMeRa-49" value="" style="shape=image;verticalLabelPosition=bottom;labelBackgroundColor=default;verticalAlign=top;aspect=fixed;imageAspect=0;image=data:image/png,iVBORw0KGgoAAAANSUhEUgAAADAAAAAwCAYAAABXAvmHAAAACXBIWXMAAAsTAAALEwEAmpwYAAAC6klEQVR4nO1Zz08TQRTeoPXg0R8n0FPLG8oFYiR68uZBE28Go38IpH+AYDxSUoj/gcZ6ULh48NZ0ho0JUA8eNFILB0s9aSmG+syboS2FkpnZ7f4g9iUv2c3Oznzfzps337x1nIENbGC+DV8655Cz2ygggxxeo4BPKOAncvgjna4FlA6fZbDIbiE6Q9EDF+PXUMA8ClZBwdDSv6OAOSwmR8IH/jF5FTlbRg77HoB3O5d95NAdvRIOeA6PUUDNN/ATDrso2KPggLs3EijgRf+Bs2MzwpZorH6Dv4icrQYOXrTDaoXG7Bf4RKjgRZvEeyylL/gnEEbYiFM95w88hycRgkflY9MewbPLyFk1egJQ85RiZZ6PHDxrrYdFO/DF5IjxJuVOIJafI66NmwOitvSOO2FKYB/d9HVzAkoe6DveuIdY/4zSKgvmBLaz6p29L4ibD0xDac4MPDpDSqdoOvw6i9isY9v+HiBu3tcDoTbUtmXNuupLT6JColFPQKpKTWfVfAeAHYje5MmoT23opaZMwiej7eioWYXBKeHXMu1aYLMmBPJWBNxJe/AtdydtCbwyIVCyIuAVvJe+ONswIVDzNOjOsorrnSV1v34XsbGlnK57tRHWBKp6Aib5v9egzd/q/uCXui8/67Qpz/duI6wJNIIjQF+VAG7numdg79uRGTjWRgRBwGsIhbMGqv/FIs6f9TSaifFGNqMnQEWnuEoJMXrTTMxxKMdOzHHYMq7myYpZ3OQ0h6dG4ON5oGENLKSGjQmoWWA564UZlHNYsAIvCRTSl2JyqN/1XDelWmXkBDg89AS+TYJqldGBz/oC3/55IeBNBKHzDj/cOe+bQKe4Cyshgn/bt+LuERKJUDITh2zfvnxPImJsOpDsxNkP3wvWrm4Ki3KD8Q+8QXme0nYo4LuIFFLDUnaYaKeToVImeWC9wwZChATgWmqK6jak2engIU92JEekJJGnvPXDZzOkKmPxm3VgA3POvv0DL6B5wbpwD8MAAAAASUVORK5CYII=;" vertex="1" parent="WIyWlLk6GJQsqaUBKTNV-1">
          <mxGeometry x="705" y="461.5" width="24" height="24" as="geometry" />
        </mxCell>
      </root>
    </mxGraphModel>
  </diagram>
</mxfile>
